<svg width="25" height="26" viewBox="0 0 25 26" xmlns="http://www.w3.org/2000/svg"><path d="M21.302 21.803h-3.703v-5.802c0-1.384-.027-3.163-1.927-3.163-1.93 0-2.224 1.507-2.224 3.064v5.901h-3.707v-11.93h3.557v1.63h.05c.495-.938 1.705-1.927 3.509-1.927 3.752 0 4.445 2.47 4.445 5.683v6.544zm-15.741-13.561c-1.189 0-2.149-.963-2.149-2.15 0-1.186.961-2.149 2.149-2.149 1.185 0 2.148.964 2.148 2.149 0 1.187-.963 2.15-2.148 2.15zm-1.855 1.631h3.71v11.929h-3.71v-11.929zm19.443-9.372h-21.303c-1.018 0-1.845.807-1.845 1.801v21.394c0 .995.827 1.804 1.845 1.804h21.303c1.019 0 1.852-.808 1.852-1.804v-21.394c0-.994-.832-1.801-1.852-1.801z" fill="#fff"/></svg>