<?xml version="1.0" encoding="utf-8"?>
<!-- Generator: Adobe Illustrator 19.0.0, SVG Export Plug-In . SVG Version: 6.00 Build 0)  -->
<svg version="1.1" xmlns="http://www.w3.org/2000/svg" xmlns:xlink="http://www.w3.org/1999/xlink" x="0px" y="0px"
	 viewBox="0 0 1156 372" enable-background="new 0 0 1156 372" xml:space="preserve">
<g id="bg">
	<g>
		<path fill="#4C4C4C" d="M719,55.7c0-5.4-4.3-9.7-9.7-9.7h-252c-5.4,0-9.7,4.3-9.7,9.7v164.8H719V55.7z"/>
		<rect x="467" y="65.4" fill="#FFFFFF" width="242.3" height="145.4"/>
		<rect x="476.7" y="75.1" fill="#B5B5B5" width="29.1" height="106.6"/>
		<rect x="515.5" y="104.2" fill="#B5B5B5" width="48.5" height="29.1"/>
		<rect x="651.2" y="75.1" fill="#B5B5B5" width="48.5" height="77.5"/>
		<rect x="622.1" y="75.1" fill="#B5B5B5" width="19.4" height="9.7"/>
		<rect x="651.2" y="162.3" fill="#B5B5B5" width="48.5" height="38.8"/>
		<g>
			<rect x="534.9" y="288.3" fill="#D1D1D1" width="96.9" height="9.7"/>
			<polyline fill="#D1D1D1" points="617.2,288.3 612.4,249.5 554.2,249.5 549.4,288.3 			"/>
			<rect x="457.3" y="55.7" fill="#35C9CB" width="9.7" height="9.7"/>
			<rect x="467" y="55.7" fill="#B5B5B5" width="242.3" height="9.7"/>
			<rect x="457.3" y="65.4" fill="#B5B5B5" width="9.7" height="145.4"/>
			<g>
				<path fill="#D1D1D1" d="M447.6,220.5v19.4c0,5.4,4.3,9.7,9.7,9.7h252c5.4,0,9.7-4.3,9.7-9.7v-19.4H447.6z"/>
			</g>
			
				<rect x="457.3" y="55.7" fill="none" stroke="#000000" stroke-width="4" stroke-linecap="round" stroke-linejoin="round" stroke-miterlimit="10" width="252" height="155.1"/>
			
				<line fill="none" stroke="#000000" stroke-width="4" stroke-linecap="round" stroke-linejoin="round" stroke-miterlimit="10" x1="447.6" y1="220.5" x2="719" y2="220.5"/>
			<path fill="none" stroke="#000000" stroke-width="4" stroke-linecap="round" stroke-linejoin="round" stroke-miterlimit="10" d="
				M447.6,55.7c0-5.4,4.3-9.7,9.7-9.7h252c5.4,0,9.7,4.3,9.7,9.7v184.2c0,5.4-4.3,9.7-9.7,9.7h-252c-5.4,0-9.7-4.3-9.7-9.7V55.7z"/>
			
				<circle fill="none" stroke="#000000" stroke-width="4" stroke-linecap="round" stroke-linejoin="round" stroke-miterlimit="10" cx="583.3" cy="235" r="4.8"/>
			
				<rect x="534.9" y="288.3" fill="none" stroke="#000000" stroke-width="4" stroke-linecap="round" stroke-linejoin="round" stroke-miterlimit="10" width="96.9" height="9.7"/>
			
				<polyline fill="none" stroke="#000000" stroke-width="4" stroke-linecap="round" stroke-linejoin="round" stroke-miterlimit="10" points="
				617.2,288.3 612.4,249.5 554.2,249.5 549.4,288.3 			"/>
			
				<line fill="none" stroke="#000000" stroke-width="4" stroke-linecap="round" stroke-linejoin="round" stroke-miterlimit="10" x1="709.3" y1="65.4" x2="457.3" y2="65.4"/>
			
				<line fill="none" stroke="#000000" stroke-width="4" stroke-linecap="round" stroke-linejoin="round" stroke-miterlimit="10" x1="467" y1="55.7" x2="467" y2="210.8"/>
			<g>
				
					<path fill="none" stroke="#000000" stroke-width="4" stroke-linecap="round" stroke-linejoin="round" stroke-miterlimit="10" d="
					M592.5,133.2c6.3,6.2,10.2,14.7,10.2,24.2c0,18.7-15.2,33.9-33.9,33.9c-18.7,0-33.9-15.2-33.9-33.9"/>
				
					<rect x="515.5" y="104.2" fill="none" stroke="#000000" stroke-width="4" stroke-linecap="round" stroke-linejoin="round" stroke-miterlimit="10" width="48.5" height="29.1"/>
				
					<line fill="none" stroke="#000000" stroke-width="4" stroke-linecap="round" stroke-linejoin="round" stroke-miterlimit="10" x1="515.5" y1="113.8" x2="563.9" y2="113.8"/>
				
					<rect x="476.7" y="75.1" fill="none" stroke="#000000" stroke-width="4" stroke-linecap="round" stroke-linejoin="round" stroke-miterlimit="10" width="29.1" height="106.6"/>
				
					<rect x="651.2" y="75.1" fill="none" stroke="#000000" stroke-width="4" stroke-linecap="round" stroke-linejoin="round" stroke-miterlimit="10" width="48.5" height="77.5"/>
				
					<line fill="none" stroke="#000000" stroke-width="4" stroke-linecap="round" stroke-linejoin="round" stroke-miterlimit="10" x1="651.2" y1="84.8" x2="699.6" y2="84.8"/>
				
					<rect x="651.2" y="162.3" fill="none" stroke="#000000" stroke-width="4" stroke-linecap="round" stroke-linejoin="round" stroke-miterlimit="10" width="48.5" height="38.8"/>
				
					<line fill="none" stroke="#000000" stroke-width="4" stroke-linecap="round" stroke-linejoin="round" stroke-miterlimit="10" x1="699.6" y1="172" x2="651.2" y2="172"/>
				
					<rect x="622.1" y="75.1" fill="none" stroke="#000000" stroke-width="4" stroke-linecap="round" stroke-linejoin="round" stroke-miterlimit="10" width="19.4" height="9.7"/>
				<g>
					
						<circle fill="none" stroke="#000000" stroke-width="4" stroke-linecap="round" stroke-linejoin="round" stroke-dasharray="0,8.1958" cx="617.2" cy="123.5" r="17"/>
				</g>
				
					<circle fill="none" stroke="#000000" stroke-width="4" stroke-linecap="round" stroke-linejoin="round" stroke-miterlimit="10" cx="583.3" cy="99.3" r="4.8"/>
			</g>
		</g>
		<circle fill="#FF4A63" cx="597.9" cy="167.1" r="14.5"/>
		
			<circle fill="none" stroke="#000000" stroke-width="4" stroke-linecap="round" stroke-linejoin="round" stroke-miterlimit="10" cx="597.9" cy="167.1" r="14.5"/>
		<g>
			<g>
				<polygon fill="#F9E765" points="515.5,230.2 467,230.2 467,278.6 505.8,278.6 515.5,268.9 				"/>
				
					<polygon fill="none" stroke="#000000" stroke-width="4" stroke-linecap="round" stroke-linejoin="round" stroke-miterlimit="10" points="
					515.5,230.2 467,230.2 467,278.6 505.8,278.6 515.5,268.9 				"/>
				
					<polyline fill="none" stroke="#000000" stroke-width="4" stroke-linecap="round" stroke-linejoin="round" stroke-miterlimit="10" points="
					515.5,268.9 505.8,268.9 505.8,278.6 				"/>
				
					<line fill="none" stroke="#000000" stroke-width="4" stroke-linecap="round" stroke-linejoin="round" stroke-miterlimit="10" x1="476.7" y1="239.8" x2="496.1" y2="239.8"/>
				
					<line fill="none" stroke="#000000" stroke-width="4" stroke-linecap="round" stroke-linejoin="round" stroke-miterlimit="10" x1="476.7" y1="259.2" x2="486.4" y2="259.2"/>
			</g>
			
				<line fill="none" stroke="#000000" stroke-width="4" stroke-linecap="round" stroke-linejoin="round" stroke-miterlimit="10" x1="476.7" y1="249.5" x2="505.8" y2="249.5"/>
		</g>
	</g>
	<g>
		<rect x="2" y="298" fill="#6D6D6D" width="1152" height="16"/>
		<rect x="2" y="314" fill="#F9E765" width="1152" height="56"/>
		
			<rect x="2" y="298" fill="none" stroke="#020210" stroke-width="4" stroke-linecap="round" stroke-linejoin="round" stroke-miterlimit="10" width="1152" height="16"/>
		<g>
			<g>
				
					<line fill="none" stroke="#020210" stroke-width="4" stroke-linecap="round" stroke-linejoin="round" stroke-miterlimit="10" x1="1154" y1="314" x2="1154" y2="370"/>
			</g>
			<g>
				
					<line fill="none" stroke="#020210" stroke-width="4" stroke-linecap="round" stroke-linejoin="round" stroke-miterlimit="10" x1="866" y1="314" x2="866" y2="370"/>
			</g>
			<g>
				
					<line fill="none" stroke="#020210" stroke-width="4" stroke-linecap="round" stroke-linejoin="round" stroke-miterlimit="10" x1="578" y1="314" x2="578" y2="370"/>
			</g>
			<g>
				
					<line fill="none" stroke="#020210" stroke-width="4" stroke-linecap="round" stroke-linejoin="round" stroke-miterlimit="10" x1="290" y1="314" x2="290" y2="370"/>
			</g>
			<g>
				
					<line fill="none" stroke="#020210" stroke-width="4" stroke-linecap="round" stroke-linejoin="round" stroke-miterlimit="10" x1="2" y1="314" x2="2" y2="370"/>
			</g>
		</g>
	</g>
	<g>
		<rect x="971" y="122" fill="#6D6D6D" width="120" height="176"/>
		<g>
			<rect x="971" y="114" fill="#4C4C4C" width="120" height="8"/>
			<g>
				<g>
					
						<line fill="none" stroke="#020210" stroke-width="4" stroke-linecap="round" stroke-linejoin="round" stroke-miterlimit="10" x1="987" y1="202" x2="1003" y2="202"/>
					
						<line fill="none" stroke="#020210" stroke-width="4" stroke-linecap="round" stroke-linejoin="round" stroke-miterlimit="10" x1="1011" y1="202" x2="1019" y2="202"/>
					
						<line fill="none" stroke="#020210" stroke-width="4" stroke-linecap="round" stroke-linejoin="round" stroke-miterlimit="10" x1="1027" y1="202" x2="1043" y2="202"/>
					
						<line fill="none" stroke="#35C9CB" stroke-width="4" stroke-linecap="round" stroke-linejoin="round" stroke-miterlimit="10" x1="1051" y1="202" x2="1059" y2="202"/>
					
						<line fill="none" stroke="#020210" stroke-width="4" stroke-linecap="round" stroke-linejoin="round" stroke-miterlimit="10" x1="994.7" y1="210" x2="1067" y2="210"/>
					
						<line fill="none" stroke="#F9E765" stroke-width="4" stroke-linecap="round" stroke-miterlimit="10" x1="1003" y1="218" x2="1019" y2="218"/>
					
						<line fill="none" stroke="#020210" stroke-width="4" stroke-linecap="round" stroke-linejoin="round" stroke-miterlimit="10" x1="1027" y1="218" x2="1035" y2="218"/>
					
						<line fill="none" stroke="#020210" stroke-width="4" stroke-linecap="round" stroke-linejoin="round" stroke-miterlimit="10" x1="1043" y1="218" x2="1059" y2="218"/>
					
						<line fill="none" stroke="#FF4A63" stroke-width="4" stroke-linecap="round" stroke-linejoin="round" stroke-miterlimit="10" x1="1067" y1="218" x2="1075" y2="218"/>
				</g>
				<g>
					
						<line fill="none" stroke="#FF4A63" stroke-width="4" stroke-linecap="round" stroke-linejoin="round" stroke-miterlimit="10" x1="987" y1="170" x2="1003" y2="170"/>
					
						<line fill="none" stroke="#020210" stroke-width="4" stroke-linecap="round" stroke-linejoin="round" stroke-miterlimit="10" x1="1011" y1="170" x2="1019" y2="170"/>
					
						<line fill="none" stroke="#F9E765" stroke-width="4" stroke-linecap="round" stroke-miterlimit="10" x1="1027" y1="170" x2="1043" y2="170"/>
					
						<line fill="none" stroke="#020210" stroke-width="4" stroke-linecap="round" stroke-linejoin="round" stroke-miterlimit="10" x1="1051" y1="170" x2="1059" y2="170"/>
					
						<line fill="none" stroke="#020210" stroke-width="4" stroke-linecap="round" stroke-linejoin="round" stroke-miterlimit="10" x1="994.7" y1="178" x2="1067" y2="178"/>
					
						<line fill="none" stroke="#35C9CB" stroke-width="4" stroke-linecap="round" stroke-linejoin="round" stroke-miterlimit="10" x1="1003" y1="186" x2="1019" y2="186"/>
					
						<line fill="none" stroke="#020210" stroke-width="4" stroke-linecap="round" stroke-linejoin="round" stroke-miterlimit="10" x1="1027" y1="186" x2="1035" y2="186"/>
					
						<line fill="none" stroke="#FF4A63" stroke-width="4" stroke-linecap="round" stroke-linejoin="round" stroke-miterlimit="10" x1="1043" y1="186" x2="1059" y2="186"/>
					
						<line fill="none" stroke="#35C9CB" stroke-width="4" stroke-linecap="round" stroke-linejoin="round" stroke-miterlimit="10" x1="1067" y1="186" x2="1075" y2="186"/>
				</g>
				<g>
					
						<line fill="none" stroke="#020210" stroke-width="4" stroke-linecap="round" stroke-linejoin="round" stroke-miterlimit="10" x1="987" y1="138" x2="1003" y2="138"/>
					
						<line fill="none" stroke="#35C9CB" stroke-width="4" stroke-linecap="round" stroke-linejoin="round" stroke-miterlimit="10" x1="1011" y1="138" x2="1019" y2="138"/>
					
						<line fill="none" stroke="#020210" stroke-width="4" stroke-linecap="round" stroke-linejoin="round" stroke-miterlimit="10" x1="1027" y1="138" x2="1043" y2="138"/>
					
						<line fill="none" stroke="#F9E765" stroke-width="4" stroke-linecap="round" stroke-miterlimit="10" x1="1051" y1="138" x2="1059" y2="138"/>
					
						<line fill="none" stroke="#020210" stroke-width="4" stroke-linecap="round" stroke-linejoin="round" stroke-miterlimit="10" x1="994.7" y1="146" x2="1067" y2="146"/>
					
						<line fill="none" stroke="#020210" stroke-width="4" stroke-linecap="round" stroke-linejoin="round" stroke-miterlimit="10" x1="1003" y1="154" x2="1019" y2="154"/>
					
						<line fill="none" stroke="#35C9CB" stroke-width="4" stroke-linecap="round" stroke-linejoin="round" stroke-miterlimit="10" x1="1027" y1="154" x2="1035" y2="154"/>
					
						<line fill="none" stroke="#020210" stroke-width="4" stroke-linecap="round" stroke-linejoin="round" stroke-miterlimit="10" x1="1043" y1="154" x2="1059" y2="154"/>
					
						<line fill="none" stroke="#020210" stroke-width="4" stroke-linecap="round" stroke-linejoin="round" stroke-miterlimit="10" x1="1067" y1="154" x2="1075" y2="154"/>
				</g>
				<g>
					
						<line fill="none" stroke="#FF4A63" stroke-width="4" stroke-linecap="round" stroke-linejoin="round" stroke-miterlimit="10" x1="987" y1="266" x2="1003" y2="266"/>
					
						<line fill="none" stroke="#020210" stroke-width="4" stroke-linecap="round" stroke-linejoin="round" stroke-miterlimit="10" x1="1011" y1="266" x2="1019" y2="266"/>
					
						<line fill="none" stroke="#F9E765" stroke-width="4" stroke-linecap="round" stroke-miterlimit="10" x1="1027" y1="266" x2="1043" y2="266"/>
					
						<line fill="none" stroke="#020210" stroke-width="4" stroke-linecap="round" stroke-linejoin="round" stroke-miterlimit="10" x1="1051" y1="266" x2="1059" y2="266"/>
					
						<line fill="none" stroke="#020210" stroke-width="4" stroke-linecap="round" stroke-linejoin="round" stroke-miterlimit="10" x1="994.7" y1="274" x2="1067" y2="274"/>
					
						<line fill="none" stroke="#35C9CB" stroke-width="4" stroke-linecap="round" stroke-linejoin="round" stroke-miterlimit="10" x1="1003" y1="282" x2="1019" y2="282"/>
					
						<line fill="none" stroke="#020210" stroke-width="4" stroke-linecap="round" stroke-linejoin="round" stroke-miterlimit="10" x1="1027" y1="282" x2="1035" y2="282"/>
					
						<line fill="none" stroke="#FF4A63" stroke-width="4" stroke-linecap="round" stroke-linejoin="round" stroke-miterlimit="10" x1="1043" y1="282" x2="1059" y2="282"/>
					
						<line fill="none" stroke="#35C9CB" stroke-width="4" stroke-linecap="round" stroke-linejoin="round" stroke-miterlimit="10" x1="1067" y1="282" x2="1075" y2="282"/>
				</g>
				<g>
					
						<line fill="none" stroke="#020210" stroke-width="4" stroke-linecap="round" stroke-linejoin="round" stroke-miterlimit="10" x1="987" y1="234" x2="1003" y2="234"/>
					
						<line fill="none" stroke="#35C9CB" stroke-width="4" stroke-linecap="round" stroke-linejoin="round" stroke-miterlimit="10" x1="1011" y1="234" x2="1019" y2="234"/>
					
						<line fill="none" stroke="#020210" stroke-width="4" stroke-linecap="round" stroke-linejoin="round" stroke-miterlimit="10" x1="1027" y1="234" x2="1043" y2="234"/>
					
						<line fill="none" stroke="#F9E765" stroke-width="4" stroke-linecap="round" stroke-miterlimit="10" x1="1051" y1="234" x2="1059" y2="234"/>
					
						<line fill="none" stroke="#020210" stroke-width="4" stroke-linecap="round" stroke-linejoin="round" stroke-miterlimit="10" x1="994.7" y1="242" x2="1067" y2="242"/>
					
						<line fill="none" stroke="#020210" stroke-width="4" stroke-linecap="round" stroke-linejoin="round" stroke-miterlimit="10" x1="1003" y1="250" x2="1019" y2="250"/>
					
						<line fill="none" stroke="#35C9CB" stroke-width="4" stroke-linecap="round" stroke-linejoin="round" stroke-miterlimit="10" x1="1027" y1="250" x2="1035" y2="250"/>
					
						<line fill="none" stroke="#020210" stroke-width="4" stroke-linecap="round" stroke-linejoin="round" stroke-miterlimit="10" x1="1043" y1="250" x2="1059" y2="250"/>
					
						<line fill="none" stroke="#020210" stroke-width="4" stroke-linecap="round" stroke-linejoin="round" stroke-miterlimit="10" x1="1067" y1="250" x2="1075" y2="250"/>
				</g>
			</g>
			
				<rect x="971" y="114" fill="none" stroke="#020210" stroke-width="4" stroke-linecap="round" stroke-linejoin="round" stroke-miterlimit="10" width="120" height="184"/>
			
				<line fill="none" stroke="#020210" stroke-width="4" stroke-linecap="round" stroke-linejoin="round" stroke-miterlimit="10" x1="1091" y1="122" x2="971" y2="122"/>
		</g>
		<g>
			<g>
				<path fill="#4C4C4C" d="M955,146H747c-4.4,0-8,3.6-8,8v128h8V154h208v128h8V154C963,149.6,959.4,146,955,146z"/>
				
					<path fill="none" stroke="#000000" stroke-width="4" stroke-linecap="round" stroke-linejoin="round" stroke-miterlimit="10" d="
					M963,282V154c0-4.4-3.6-8-8-8H747c-4.4,0-8,3.6-8,8v128"/>
				<rect x="747" y="154" fill="#F9E765" width="208" height="128"/>
				<path fill="#B5B5B5" d="M731,298c-8.8,0-16-7.2-16-16h272c0,8.8-7.2,16-16,16"/>
				
					<path fill="none" stroke="#000000" stroke-width="4" stroke-linecap="round" stroke-linejoin="round" stroke-miterlimit="10" d="
					M731,298c-8.8,0-16-7.2-16-16h272c0,8.8-7.2,16-16,16"/>
				
					<line fill="none" stroke="#000000" stroke-width="4" stroke-linecap="round" stroke-linejoin="round" stroke-miterlimit="10" x1="747" y1="154" x2="955" y2="154"/>
				
					<line fill="none" stroke="#000000" stroke-width="4" stroke-linecap="round" stroke-linejoin="round" stroke-miterlimit="10" x1="955" y1="154" x2="955" y2="282"/>
				
					<line fill="none" stroke="#000000" stroke-width="4" stroke-linecap="round" stroke-linejoin="round" stroke-miterlimit="10" x1="971" y1="298" x2="731" y2="298"/>
				
					<rect x="827" y="282" fill="none" stroke="#000000" stroke-width="4" stroke-linecap="round" stroke-linejoin="round" stroke-miterlimit="10" width="48" height="8"/>
				
					<line fill="none" stroke="#000000" stroke-width="4" stroke-linecap="round" stroke-linejoin="round" stroke-miterlimit="10" x1="747" y1="154" x2="747" y2="282"/>
			</g>
			<g>
				<polygon fill="#4C4C4C" points="843,178 831,178 829,186 845,186 				"/>
				<polygon fill="#4C4C4C" points="871,178 859,178 857,186 873,186 				"/>
				<g>
					<path fill="#FFFFFF" d="M827,178V58c0,64-48,64-48,120H827z"/>
					<path fill="#FFFFFF" d="M875,58v120h48C923,122,875,122,875,58z"/>
				</g>
				<rect x="795" y="170" fill="#FF4A63" width="16" height="8"/>
				<rect x="891" y="170" fill="#FF4A63" width="16" height="8"/>
				
					<path fill="none" stroke="#000000" stroke-width="4" stroke-linecap="round" stroke-linejoin="round" stroke-miterlimit="10" d="
					M827,178h-48c0-56,48-56,48-120"/>
				
					<rect x="795" y="170" fill="none" stroke="#000000" stroke-width="4" stroke-linecap="round" stroke-linejoin="round" stroke-miterlimit="10" width="16" height="8"/>
				
					<path fill="none" stroke="#000000" stroke-width="4" stroke-linecap="round" stroke-linejoin="round" stroke-miterlimit="10" d="
					M875,178h48c0-56-48-56-48-120"/>
				
					<rect x="891" y="170" fill="none" stroke="#000000" stroke-width="4" stroke-linecap="round" stroke-linejoin="round" stroke-miterlimit="10" width="16" height="8"/>
				<g>
					<g>
						<path fill="#FFFFFF" d="M837.3,18C830.9,29,827,42.9,827,58v120h48V58c0-15.1-3.9-29-10.3-40H837.3z"/>
						<path fill="#4C4C4C" d="M851,2c-5.3,4.1-9.9,9.6-13.7,16h27.4C860.9,11.6,856.3,6.1,851,2z"/>
					</g>
					
						<path fill="none" stroke="#000000" stroke-width="4" stroke-linecap="round" stroke-linejoin="round" stroke-miterlimit="10" d="
						M851,2c-14.3,11.2-24,32.1-24,56v120h48V58C875,34.1,865.3,13.2,851,2z"/>
					
						<line fill="none" stroke="#000000" stroke-width="4" stroke-linecap="round" stroke-linejoin="round" stroke-miterlimit="10" x1="837.3" y1="18" x2="864.7" y2="18"/>
					<g>
						
							<path fill="none" stroke="#000000" stroke-width="4" stroke-linecap="round" stroke-linejoin="round" stroke-miterlimit="10" d="
							M839,46c3.7-2.5,7.8-4,12-4c4.2,0,8.3,1.5,12,4"/>
					</g>
				</g>
				
					<line fill="none" stroke="#000000" stroke-width="4" stroke-linecap="round" stroke-linejoin="round" stroke-miterlimit="10" x1="827" y1="170" x2="875" y2="170"/>
				
					<line fill="none" stroke="#000000" stroke-width="4" stroke-linecap="round" stroke-linejoin="round" stroke-miterlimit="10" x1="851" y1="186" x2="851" y2="154"/>
				
					<polygon fill="none" stroke="#000000" stroke-width="4" stroke-linecap="round" stroke-linejoin="round" stroke-miterlimit="10" points="
					843,178 831,178 829,186 845,186 				"/>
				
					<polygon fill="none" stroke="#000000" stroke-width="4" stroke-linecap="round" stroke-linejoin="round" stroke-miterlimit="10" points="
					871,178 859,178 857,186 873,186 				"/>
			</g>
			<g>
				<g>
					
						<line fill="none" stroke="#000000" stroke-width="4" stroke-linecap="round" stroke-linejoin="round" stroke-miterlimit="10" x1="851" y1="234" x2="851" y2="250"/>
					
						<path fill="none" stroke="#000000" stroke-width="4" stroke-linecap="round" stroke-linejoin="round" stroke-miterlimit="10" d="
						M811,250c0,8.8,7.2,16,16,16"/>
					
						<path fill="none" stroke="#000000" stroke-width="4" stroke-linecap="round" stroke-linejoin="round" stroke-miterlimit="10" d="
						M811,250c0-8.8,7.2-16,16-16"/>
					
						<path fill="none" stroke="#000000" stroke-width="4" stroke-linecap="round" stroke-linejoin="round" stroke-miterlimit="10" d="
						M843,250c0,8.8-7.2,16-16,16"/>
					
						<line fill="none" stroke="#000000" stroke-width="4" stroke-linecap="round" stroke-linejoin="round" stroke-miterlimit="10" x1="843" y1="242" x2="843" y2="218"/>
					
						<line fill="none" stroke="#000000" stroke-width="4" stroke-linecap="round" stroke-linejoin="round" stroke-miterlimit="10" x1="843" y1="210" x2="843" y2="202"/>
					
						<line fill="none" stroke="#000000" stroke-width="4" stroke-linecap="round" stroke-linejoin="round" stroke-miterlimit="10" x1="851" y1="226" x2="851" y2="210"/>
				</g>
				
					<path fill="none" stroke="#000000" stroke-width="4" stroke-linecap="round" stroke-linejoin="round" stroke-miterlimit="10" d="
					M835,210c0,4.4-3.6,8-8,8c-4.4,0-8-3.6-8-8s3.6-8,8-8"/>
				
					<line fill="none" stroke="#000000" stroke-width="4" stroke-linecap="round" stroke-linejoin="round" stroke-miterlimit="10" x1="835" y1="208.3" x2="835" y2="194"/>
				
					<path fill="none" stroke="#000000" stroke-width="4" stroke-linecap="round" stroke-linejoin="round" stroke-miterlimit="10" d="
					M867,218c0,4.4,3.6,8,8,8c4.4,0,8-3.6,8-8s-3.6-8-8-8"/>
				
					<line fill="none" stroke="#000000" stroke-width="4" stroke-linecap="round" stroke-linejoin="round" stroke-miterlimit="10" x1="867" y1="210" x2="867" y2="194"/>
				
					<circle fill="none" stroke="#000000" stroke-width="4" stroke-linecap="round" stroke-linejoin="round" stroke-miterlimit="10" cx="807" cy="226" r="4"/>
				
					<line fill="none" stroke="#000000" stroke-width="4" stroke-linecap="round" stroke-linejoin="round" stroke-miterlimit="10" x1="859" y1="202" x2="859" y2="218"/>
				
					<path fill="none" stroke="#000000" stroke-width="4" stroke-linecap="round" stroke-linejoin="round" stroke-miterlimit="10" d="
					M875,234c8.8,0,16,7.2,16,16s-7.2,16-16,16c-8.8,0-16-7.2-16-16"/>
				
					<line fill="none" stroke="#000000" stroke-width="4" stroke-linecap="round" stroke-linejoin="round" stroke-miterlimit="10" x1="859" y1="250" x2="859" y2="226"/>
				
					<path fill="none" stroke="#000000" stroke-width="4" stroke-linecap="round" stroke-linejoin="round" stroke-miterlimit="10" d="
					M867,250c0,4.4,3.6,8,8,8"/>
				
					<path fill="none" stroke="#000000" stroke-width="4" stroke-linecap="round" stroke-linejoin="round" stroke-miterlimit="10" d="
					M883,250c0,4.4-3.6,8-8,8"/>
				
					<path fill="none" stroke="#000000" stroke-width="4" stroke-linecap="round" stroke-linejoin="round" stroke-miterlimit="10" d="
					M883,248.7c0-3.7-3-6.7-6.7-6.7"/>
				
					<line fill="none" stroke="#000000" stroke-width="4" stroke-linecap="round" stroke-linejoin="round" stroke-miterlimit="10" x1="867" y1="242" x2="867" y2="234"/>
				
					<line fill="none" stroke="#000000" stroke-width="4" stroke-linecap="round" stroke-linejoin="round" stroke-miterlimit="10" x1="867" y1="210" x2="867" y2="218"/>
				
					<circle fill="none" stroke="#000000" stroke-width="4" stroke-linecap="round" stroke-linejoin="round" stroke-miterlimit="10" cx="897" cy="230" r="4"/>
				
					<circle fill="none" stroke="#000000" stroke-width="4" stroke-linecap="round" stroke-linejoin="round" stroke-miterlimit="10" cx="857" cy="270" r="4"/>
				
					<line fill="none" stroke="#000000" stroke-width="4" stroke-linecap="round" stroke-linejoin="round" stroke-miterlimit="10" x1="851" y1="202" x2="851" y2="194"/>
				
					<line fill="none" stroke="#000000" stroke-width="4" stroke-linecap="round" stroke-linejoin="round" stroke-miterlimit="10" x1="899" y1="266" x2="899" y2="266"/>
				
					<line fill="none" stroke="#000000" stroke-width="4" stroke-linecap="round" stroke-linejoin="round" stroke-miterlimit="10" x1="891" y1="210" x2="891" y2="210"/>
				
					<line fill="none" stroke="#000000" stroke-width="4" stroke-linecap="round" stroke-linejoin="round" stroke-miterlimit="10" x1="789" y1="250" x2="789" y2="250"/>
				
					<line fill="none" stroke="#000000" stroke-width="4" stroke-linecap="round" stroke-linejoin="round" stroke-miterlimit="10" x1="811" y1="202" x2="811" y2="202"/>
				
					<line fill="none" stroke="#000000" stroke-width="4" stroke-linecap="round" stroke-linejoin="round" stroke-miterlimit="10" x1="915" y1="250" x2="915" y2="250"/>
				
					<path fill="none" stroke="#000000" stroke-width="4" stroke-linecap="round" stroke-linejoin="round" stroke-miterlimit="10" d="
					M851,250c0,13.3-10.7,24-24,24"/>
				
					<path fill="none" stroke="#000000" stroke-width="4" stroke-linecap="round" stroke-linejoin="round" stroke-miterlimit="10" d="
					M819,250c0-4.4,3.6-8,8-8c4.4,0,8,3.6,8,8s-3.6,8-8,8"/>
				
					<line fill="none" stroke="#000000" stroke-width="4" stroke-linecap="round" stroke-linejoin="round" stroke-miterlimit="10" x1="835" y1="226" x2="835" y2="234"/>
				
					<path fill="none" stroke="#000000" stroke-width="4" stroke-linecap="round" stroke-linejoin="round" stroke-miterlimit="10" d="
					M915,274c0-8.8-7.2-16-16-16"/>
				
					<path fill="none" stroke="#000000" stroke-width="4" stroke-linecap="round" stroke-linejoin="round" stroke-miterlimit="10" d="
					M931,274c0-4.4-3.6-8-8-8"/>
				
					<path fill="none" stroke="#000000" stroke-width="4" stroke-linecap="round" stroke-linejoin="round" stroke-miterlimit="10" d="
					M787,274c0-8.8,7.2-16,16-16"/>
				
					<path fill="none" stroke="#000000" stroke-width="4" stroke-linecap="round" stroke-linejoin="round" stroke-miterlimit="10" d="
					M771,274c0-4.4,3.6-8,8-8"/>
				
					<line fill="none" stroke="#000000" stroke-width="4" stroke-linecap="round" stroke-linejoin="round" stroke-miterlimit="10" x1="939" y1="274" x2="939" y2="274"/>
				
					<line fill="none" stroke="#000000" stroke-width="4" stroke-linecap="round" stroke-linejoin="round" stroke-miterlimit="10" x1="763" y1="274" x2="763" y2="274"/>
				
					<path fill="none" stroke="#000000" stroke-width="4" stroke-linecap="round" stroke-linejoin="round" stroke-miterlimit="10" d="
					M795,274c0-4.4,3.6-8,8-8"/>
			</g>
		</g>
		<g>
			<rect x="1099" y="138" fill="#F9E765" width="24" height="160"/>
			
				<rect x="1099" y="138" fill="none" stroke="#020210" stroke-width="4" stroke-linecap="round" stroke-linejoin="round" stroke-miterlimit="10" width="24" height="160"/>
			
				<line fill="none" stroke="#020210" stroke-width="4" stroke-linecap="round" stroke-linejoin="round" stroke-miterlimit="10" x1="1115" y1="138" x2="1115" y2="298"/>
			<g>
				<g>
					
						<line fill="none" stroke="#020210" stroke-width="4" stroke-linecap="round" stroke-linejoin="round" stroke-miterlimit="10" x1="1099" y1="290" x2="1103" y2="290"/>
				</g>
				<g>
					
						<line fill="none" stroke="#020210" stroke-width="4" stroke-linecap="round" stroke-linejoin="round" stroke-miterlimit="10" x1="1099" y1="282" x2="1103" y2="282"/>
				</g>
				<g>
					
						<line fill="none" stroke="#020210" stroke-width="4" stroke-linecap="round" stroke-linejoin="round" stroke-miterlimit="10" x1="1099" y1="274" x2="1103" y2="274"/>
				</g>
				<g>
					
						<line fill="none" stroke="#020210" stroke-width="4" stroke-linecap="round" stroke-linejoin="round" stroke-miterlimit="10" x1="1099" y1="266" x2="1103" y2="266"/>
				</g>
				<g>
					
						<line fill="none" stroke="#020210" stroke-width="4" stroke-linecap="round" stroke-linejoin="round" stroke-miterlimit="10" x1="1099" y1="258" x2="1103" y2="258"/>
				</g>
				<g>
					
						<line fill="none" stroke="#020210" stroke-width="4" stroke-linecap="round" stroke-linejoin="round" stroke-miterlimit="10" x1="1099" y1="250" x2="1103" y2="250"/>
				</g>
				<g>
					
						<line fill="none" stroke="#020210" stroke-width="4" stroke-linecap="round" stroke-linejoin="round" stroke-miterlimit="10" x1="1099" y1="242" x2="1103" y2="242"/>
				</g>
				<g>
					
						<line fill="none" stroke="#020210" stroke-width="4" stroke-linecap="round" stroke-linejoin="round" stroke-miterlimit="10" x1="1099" y1="234" x2="1103" y2="234"/>
				</g>
				<g>
					
						<line fill="none" stroke="#020210" stroke-width="4" stroke-linecap="round" stroke-linejoin="round" stroke-miterlimit="10" x1="1099" y1="226" x2="1103" y2="226"/>
				</g>
				<g>
					
						<line fill="none" stroke="#020210" stroke-width="4" stroke-linecap="round" stroke-linejoin="round" stroke-miterlimit="10" x1="1099" y1="218" x2="1103" y2="218"/>
				</g>
				<g>
					
						<line fill="none" stroke="#020210" stroke-width="4" stroke-linecap="round" stroke-linejoin="round" stroke-miterlimit="10" x1="1099" y1="210" x2="1103" y2="210"/>
				</g>
				<g>
					
						<line fill="none" stroke="#020210" stroke-width="4" stroke-linecap="round" stroke-linejoin="round" stroke-miterlimit="10" x1="1099" y1="202" x2="1103" y2="202"/>
				</g>
				<g>
					
						<line fill="none" stroke="#020210" stroke-width="4" stroke-linecap="round" stroke-linejoin="round" stroke-miterlimit="10" x1="1099" y1="194" x2="1103" y2="194"/>
				</g>
				<g>
					
						<line fill="none" stroke="#020210" stroke-width="4" stroke-linecap="round" stroke-linejoin="round" stroke-miterlimit="10" x1="1099" y1="186" x2="1103" y2="186"/>
				</g>
				<g>
					
						<line fill="none" stroke="#020210" stroke-width="4" stroke-linecap="round" stroke-linejoin="round" stroke-miterlimit="10" x1="1099" y1="178" x2="1103" y2="178"/>
				</g>
				<g>
					
						<line fill="none" stroke="#020210" stroke-width="4" stroke-linecap="round" stroke-linejoin="round" stroke-miterlimit="10" x1="1099" y1="170" x2="1103" y2="170"/>
				</g>
				<g>
					
						<line fill="none" stroke="#020210" stroke-width="4" stroke-linecap="round" stroke-linejoin="round" stroke-miterlimit="10" x1="1099" y1="162" x2="1103" y2="162"/>
				</g>
				<g>
					
						<line fill="none" stroke="#020210" stroke-width="4" stroke-linecap="round" stroke-linejoin="round" stroke-miterlimit="10" x1="1099" y1="154" x2="1103" y2="154"/>
				</g>
				<g>
					
						<line fill="none" stroke="#020210" stroke-width="4" stroke-linecap="round" stroke-linejoin="round" stroke-miterlimit="10" x1="1099" y1="146" x2="1103" y2="146"/>
				</g>
			</g>
		</g>
		<g>
			<rect x="1131" y="170" fill="#FF4A63" width="16" height="120"/>
			
				<rect x="1131" y="170" fill="none" stroke="#020210" stroke-width="4" stroke-linecap="round" stroke-linejoin="round" stroke-miterlimit="10" width="16" height="128"/>
			
				<polygon fill="none" stroke="#020210" stroke-width="4" stroke-linecap="round" stroke-linejoin="round" stroke-miterlimit="10" points="
				1139,154 1131,170 1147,170 			"/>
			
				<line fill="none" stroke="#020210" stroke-width="4" stroke-linecap="round" stroke-linejoin="round" stroke-miterlimit="10" x1="1139" y1="170" x2="1139" y2="290"/>
			
				<line fill="none" stroke="#020210" stroke-width="4" stroke-linecap="round" stroke-linejoin="round" stroke-miterlimit="10" x1="1131" y1="290" x2="1147" y2="290"/>
			
				<line fill="none" stroke="#020210" stroke-width="4" stroke-linecap="round" stroke-linejoin="round" stroke-miterlimit="10" x1="1135" y1="162" x2="1143" y2="162"/>
		</g>
	</g>
	<g>
		<rect x="178.1" y="78.5" fill="#F9E765" width="40" height="40"/>
		<g>
			
				<rect x="178.1" y="78.5" fill="none" stroke="#000000" stroke-width="4" stroke-linecap="round" stroke-linejoin="round" stroke-miterlimit="10" width="40" height="40"/>
			<g>
				<polygon fill="#FF4A63" points="322.1,94.5 282.1,94.5 282.1,134.5 314.1,134.5 322.1,126.5 				"/>
				
					<polygon fill="none" stroke="#000000" stroke-width="4" stroke-linecap="round" stroke-linejoin="round" stroke-miterlimit="10" points="
					322.1,94.5 282.1,94.5 282.1,134.5 314.1,134.5 322.1,126.5 				"/>
				
					<polyline fill="none" stroke="#000000" stroke-width="4" stroke-linecap="round" stroke-linejoin="round" stroke-miterlimit="10" points="
					322.1,126.5 314.1,126.5 314.1,134.5 				"/>
				
					<line fill="none" stroke="#000000" stroke-width="4" stroke-linecap="round" stroke-linejoin="round" stroke-miterlimit="10" x1="290.1" y1="102.5" x2="314.1" y2="102.5"/>
				
					<line fill="none" stroke="#000000" stroke-width="4" stroke-linecap="round" stroke-linejoin="round" stroke-miterlimit="10" x1="290.1" y1="110.5" x2="306.5" y2="110.5"/>
				
					<line fill="none" stroke="#000000" stroke-width="4" stroke-linecap="round" stroke-linejoin="round" stroke-miterlimit="10" x1="290.1" y1="118.5" x2="298.1" y2="118.5"/>
			</g>
			<g>
				<g>
					<polygon fill="#35C9CB" points="242.1,102.5 202.1,102.5 202.1,142.5 234.1,142.5 242.1,134.5 					"/>
					
						<polygon fill="none" stroke="#000000" stroke-width="4" stroke-linecap="round" stroke-linejoin="round" stroke-miterlimit="10" points="
						242.1,102.5 202.1,102.5 202.1,142.5 234.1,142.5 242.1,134.5 					"/>
					
						<polyline fill="none" stroke="#000000" stroke-width="4" stroke-linecap="round" stroke-linejoin="round" stroke-miterlimit="10" points="
						242.1,134.5 234.1,134.5 234.1,142.5 					"/>
					
						<line fill="none" stroke="#000000" stroke-width="4" stroke-linecap="round" stroke-linejoin="round" stroke-miterlimit="10" x1="210.1" y1="110.5" x2="226.1" y2="110.5"/>
					
						<line fill="none" stroke="#000000" stroke-width="4" stroke-linecap="round" stroke-linejoin="round" stroke-miterlimit="10" x1="210.1" y1="126.5" x2="218.1" y2="126.5"/>
				</g>
				
					<line fill="none" stroke="#000000" stroke-width="4" stroke-linecap="round" stroke-linejoin="round" stroke-miterlimit="10" x1="210.1" y1="118.5" x2="234.1" y2="118.5"/>
			</g>
		</g>
	</g>
</g>
<g id="icons">
</g>
<g id="banner">
	<g>
		<g>
			<path fill="#6D6D6D" d="M422,145.2H310v152h112c4.4,0,8-3.6,8-8v-136C430,148.8,426.4,145.2,422,145.2z"/>
			<rect x="310" y="185.2" fill="#FFFFFF" width="120" height="72"/>
			<path fill="none" stroke="#020210" stroke-width="4" stroke-linecap="round" stroke-linejoin="round" stroke-miterlimit="10" d="
				M422,145.2H310v152h112c4.4,0,8-3.6,8-8v-136C430,148.8,426.4,145.2,422,145.2z"/>
			
				<line fill="none" stroke="#020210" stroke-width="4" stroke-linecap="round" stroke-linejoin="round" stroke-miterlimit="10" x1="310" y1="185.2" x2="430" y2="185.2"/>
			
				<line fill="none" stroke="#020210" stroke-width="4" stroke-linecap="round" stroke-linejoin="round" stroke-miterlimit="10" x1="310" y1="257.2" x2="430" y2="257.2"/>
			<rect x="398" y="141.2" fill="#35C9CB" width="8" height="160"/>
			
				<rect x="398" y="141.2" fill="none" stroke="#020210" stroke-width="4" stroke-linecap="round" stroke-linejoin="round" stroke-miterlimit="10" width="8" height="160"/>
			
				<line fill="none" stroke="#020210" stroke-width="4" stroke-linecap="round" stroke-linejoin="round" stroke-miterlimit="10" x1="318" y1="145.2" x2="318" y2="297.2"/>
		</g>
		<g>
			<rect x="77" y="177.2" fill="#F9E765" width="16" height="112"/>
			
				<rect x="77" y="177.2" fill="none" stroke="#020210" stroke-width="4" stroke-linecap="round" stroke-linejoin="round" stroke-miterlimit="10" width="16" height="120"/>
			
				<polygon fill="none" stroke="#020210" stroke-width="4" stroke-linecap="round" stroke-linejoin="round" stroke-miterlimit="10" points="
				85,161.2 77,177.2 93,177.2 			"/>
			
				<line fill="none" stroke="#020210" stroke-width="4" stroke-linecap="round" stroke-linejoin="round" stroke-miterlimit="10" x1="85" y1="177.2" x2="85" y2="289.2"/>
			
				<line fill="none" stroke="#020210" stroke-width="4" stroke-linecap="round" stroke-linejoin="round" stroke-miterlimit="10" x1="77" y1="289.2" x2="93" y2="289.2"/>
			
				<line fill="none" stroke="#020210" stroke-width="4" stroke-linecap="round" stroke-linejoin="round" stroke-miterlimit="10" x1="81" y1="169.2" x2="89" y2="169.2"/>
		</g>
		<g>
			<g>
				<path fill="#35C9CB" d="M9.3,249.2c-2.7,4.7-4.3,10.2-4.3,16c0,17.7,14.3,32,32,32s32-14.3,32-32c0-5.8-1.6-11.3-4.3-16H9.3z"/>
			</g>
			<path fill="none" stroke="#020210" stroke-width="4" stroke-linecap="round" stroke-linejoin="round" stroke-miterlimit="10" d="
				M45,234.3v-57H29v57c-13.8,3.6-24,16-24,31c0,17.7,14.3,32,32,32s32-14.3,32-32C69,250.3,58.8,237.8,45,234.3z"/>
			
				<line fill="none" stroke="#020210" stroke-width="4" stroke-linecap="round" stroke-linejoin="round" stroke-miterlimit="10" x1="25" y1="177.2" x2="49" y2="177.2"/>
			<g>
				<g>
					
						<line fill="none" stroke="#020210" stroke-width="4" stroke-linecap="round" stroke-linejoin="round" stroke-miterlimit="10" x1="29" y1="225.2" x2="33" y2="225.2"/>
				</g>
				<g>
					
						<line fill="none" stroke="#020210" stroke-width="4" stroke-linecap="round" stroke-linejoin="round" stroke-miterlimit="10" x1="29" y1="217.2" x2="33" y2="217.2"/>
				</g>
				<g>
					
						<line fill="none" stroke="#020210" stroke-width="4" stroke-linecap="round" stroke-linejoin="round" stroke-miterlimit="10" x1="29" y1="209.2" x2="33" y2="209.2"/>
				</g>
				<g>
					
						<line fill="none" stroke="#020210" stroke-width="4" stroke-linecap="round" stroke-linejoin="round" stroke-miterlimit="10" x1="29" y1="201.2" x2="33" y2="201.2"/>
				</g>
				<g>
					
						<line fill="none" stroke="#020210" stroke-width="4" stroke-linecap="round" stroke-linejoin="round" stroke-miterlimit="10" x1="29" y1="193.2" x2="33" y2="193.2"/>
				</g>
				<g>
					
						<line fill="none" stroke="#020210" stroke-width="4" stroke-linecap="round" stroke-linejoin="round" stroke-miterlimit="10" x1="29" y1="185.2" x2="33" y2="185.2"/>
				</g>
			</g>
			
				<line fill="none" stroke="#020210" stroke-width="4" stroke-linecap="round" stroke-linejoin="round" stroke-miterlimit="10" x1="9.3" y1="249.2" x2="64.7" y2="249.2"/>
			<g>
				
					<circle fill="none" stroke="#FFFFFF" stroke-width="4" stroke-linecap="round" stroke-linejoin="round" stroke-miterlimit="10" cx="25" cy="269.2" r="4"/>
				
					<circle fill="none" stroke="#FFFFFF" stroke-width="4" stroke-linecap="round" stroke-linejoin="round" stroke-miterlimit="10" cx="41" cy="277.2" r="4"/>
				
					<circle fill="none" stroke="#FFFFFF" stroke-width="4" stroke-linecap="round" stroke-linejoin="round" stroke-miterlimit="10" cx="49" cy="261.2" r="4"/>
				
					<line fill="none" stroke="#FFFFFF" stroke-width="4" stroke-linecap="round" stroke-linejoin="round" stroke-miterlimit="10" x1="29" y1="257.2" x2="29" y2="257.2"/>
				
					<line fill="none" stroke="#FFFFFF" stroke-width="4" stroke-linecap="round" stroke-linejoin="round" stroke-miterlimit="10" x1="61" y1="269.2" x2="61" y2="269.2"/>
				
					<line fill="none" stroke="#FFFFFF" stroke-width="4" stroke-linecap="round" stroke-linejoin="round" stroke-miterlimit="10" x1="31" y1="285.9" x2="31" y2="285.9"/>
				
					<line fill="none" stroke="#FFFFFF" stroke-width="4" stroke-linecap="round" stroke-linejoin="round" stroke-miterlimit="10" x1="53" y1="273.2" x2="53" y2="273.2"/>
				
					<line fill="none" stroke="#FFFFFF" stroke-width="4" stroke-linecap="round" stroke-linejoin="round" stroke-miterlimit="10" x1="13" y1="265.2" x2="13" y2="265.2"/>
			</g>
		</g>
		<g>
			<g>
				<path fill="#4C4C4C" d="M404.1,75.9l11.3-11.3C408.9,58,399.9,54,390,54v16C395.5,70,400.5,72.2,404.1,75.9z"/>
				<path fill="#FF4A63" d="M415.5,64.5l-11.3,11.3c3.6,3.6,5.9,8.6,5.9,14.1s-2.2,10.5-5.9,14.1l11.3,11.3
					C422,108.9,426,99.9,426,90S422,71.1,415.5,64.5z"/>
				<path fill="#F9E765" d="M390,110c-11,0-20-9-20-20s9-20,20-20V54c-19.9,0-36,16.1-36,36s16.1,36,36,36c9.9,0,18.9-4,25.5-10.5
					l-11.3-11.3C400.5,107.8,395.5,110,390,110z"/>
			</g>
			<g>
				
					<circle fill="none" stroke="#020210" stroke-width="4" stroke-linecap="round" stroke-linejoin="round" stroke-miterlimit="10" cx="390" cy="90" r="36"/>
				
					<circle fill="none" stroke="#020210" stroke-width="4" stroke-linecap="round" stroke-linejoin="round" stroke-miterlimit="10" cx="390" cy="90" r="20"/>
				
					<line fill="none" stroke="#020210" stroke-width="4" stroke-linecap="round" stroke-linejoin="round" stroke-miterlimit="10" x1="390" y1="70" x2="390" y2="54"/>
				
					<line fill="none" stroke="#020210" stroke-width="4" stroke-linecap="round" stroke-linejoin="round" stroke-miterlimit="10" x1="405.4" y1="74.6" x2="415.4" y2="64.6"/>
				
					<line fill="none" stroke="#020210" stroke-width="4" stroke-linecap="round" stroke-linejoin="round" stroke-miterlimit="10" x1="404.1" y1="104.1" x2="415.5" y2="115.5"/>
			</g>
		</g>
		<g>
			<rect x="101" y="161.2" fill="#35C9CB" width="184" height="136"/>
			<g>
				<path fill="#35C9CB" d="M293,289.2c0,4.4-3.6,8-8,8l0,0c-4.4,0-8-3.6-8-8v-136c0-4.4,3.6-8,8-8l0,0c4.4,0,8,3.6,8,8V289.2z"/>
				<rect x="277" y="145.2" fill="#35C9CB" width="8" height="136"/>
				<g>
					
						<line fill="none" stroke="#FFFFFF" stroke-width="4" stroke-linecap="round" stroke-linejoin="round" stroke-miterlimit="10" x1="285" y1="289.2" x2="109" y2="289.2"/>
					
						<path fill="none" stroke="#FFFFFF" stroke-width="4" stroke-linecap="round" stroke-linejoin="round" stroke-miterlimit="10" d="
						M293,281.2c0,4.4-3.6,8-8,8"/>
					
						<line fill="none" stroke="#FFFFFF" stroke-width="4" stroke-linecap="round" stroke-linejoin="round" stroke-miterlimit="10" x1="109" y1="169.2" x2="277" y2="169.2"/>
					
						<line fill="none" stroke="#FFFFFF" stroke-width="4" stroke-linecap="round" stroke-linejoin="round" stroke-miterlimit="10" x1="109" y1="169.2" x2="109" y2="289.2"/>
					
						<rect x="117" y="177.2" fill="none" stroke="#FFFFFF" stroke-width="4" stroke-linecap="round" stroke-linejoin="round" stroke-miterlimit="10" width="8" height="8"/>
					
						<line fill="none" stroke="#FFFFFF" stroke-width="4" stroke-linecap="round" stroke-linejoin="round" stroke-miterlimit="10" x1="133" y1="177.2" x2="149" y2="177.2"/>
					
						<line fill="none" stroke="#FFFFFF" stroke-width="4" stroke-linecap="round" stroke-linejoin="round" stroke-miterlimit="10" x1="133" y1="185.2" x2="141" y2="185.2"/>
					<g>
						<g>
							
								<path fill="none" stroke="#FFFFFF" stroke-width="4" stroke-linecap="round" stroke-linejoin="round" stroke-miterlimit="10" d="
								M237,232.1v-5.7l-12-2.6c-0.3-1.3-0.6-2.6-1.1-3.9l9.1-8.2l-2.9-5l-11.7,3.8c-0.9-1-1.8-2-2.9-2.8l3.8-11.7l-5-2.9l-8.2,9.1
								c-1.3-0.4-2.6-0.8-3.9-1.1l-2.6-12h-5.7l-2.6,12c-1.3,0.3-2.6,0.6-3.9,1.1l-8.2-9.1l-5,2.9l3.8,11.7c-1,0.9-2,1.8-2.9,2.8
								l-11.7-3.8l-2.9,5l9.1,8.2c-0.4,1.3-0.8,2.6-1.1,3.9l-12,2.6v5.7l12,2.6c0.3,1.3,0.6,2.6,1.1,3.9l-9.1,8.2l2.9,5l11.7-3.8
								c0.9,1,1.8,2,2.8,2.9l-3.8,11.7l5,2.9l8.2-9.1c1.3,0.4,2.6,0.8,3.9,1.1l2.6,12h5.7l2.6-12c1.3-0.3,2.6-0.6,3.9-1.1l8.2,9.1
								l5-2.9l-3.8-11.7c1-0.9,2-1.8,2.9-2.9l11.7,3.8l2.9-4.9l-9.1-8.2c0.4-1.3,0.8-2.6,1.1-3.9L237,232.1z"/>
							
								<circle fill="none" stroke="#FFFFFF" stroke-width="4" stroke-linecap="round" stroke-linejoin="round" stroke-miterlimit="10" cx="197" cy="229.2" r="11.4"/>
						</g>
					</g>
					<g>
						
							<line fill="none" stroke="#FFFFFF" stroke-width="4" stroke-linecap="round" stroke-linejoin="round" stroke-miterlimit="10" x1="149" y1="229.2" x2="117" y2="229.2"/>
						
							<line fill="none" stroke="#FFFFFF" stroke-width="4" stroke-linecap="round" stroke-linejoin="round" stroke-miterlimit="10" x1="117" y1="237.2" x2="133" y2="237.2"/>
						
							<line fill="none" stroke="#FFFFFF" stroke-width="4" stroke-linecap="round" stroke-linejoin="round" stroke-miterlimit="10" x1="117" y1="257.2" x2="141" y2="257.2"/>
						
							<line fill="none" stroke="#FFFFFF" stroke-width="4" stroke-linecap="round" stroke-linejoin="round" stroke-miterlimit="10" x1="141" y1="257.2" x2="149" y2="249.2"/>
						
							<line fill="none" stroke="#FFFFFF" stroke-width="4" stroke-linecap="round" stroke-linejoin="round" stroke-miterlimit="10" x1="149" y1="209.2" x2="141" y2="201.2"/>
						
							<line fill="none" stroke="#FFFFFF" stroke-width="4" stroke-linecap="round" stroke-linejoin="round" stroke-miterlimit="10" x1="141" y1="201.2" x2="117" y2="201.2"/>
						
							<line fill="none" stroke="#FFFFFF" stroke-width="4" stroke-linecap="round" stroke-linejoin="round" stroke-miterlimit="10" x1="117" y1="209.2" x2="125" y2="209.2"/>
					</g>
					<g>
						
							<line fill="none" stroke="#FFFFFF" stroke-width="4" stroke-linecap="round" stroke-linejoin="round" stroke-miterlimit="10" x1="245" y1="229.2" x2="277" y2="229.2"/>
						
							<line fill="none" stroke="#FFFFFF" stroke-width="4" stroke-linecap="round" stroke-linejoin="round" stroke-miterlimit="10" x1="277" y1="237.2" x2="269" y2="237.2"/>
						
							<line fill="none" stroke="#FFFFFF" stroke-width="4" stroke-linecap="round" stroke-linejoin="round" stroke-miterlimit="10" x1="277" y1="257.2" x2="253" y2="257.2"/>
						
							<line fill="none" stroke="#FFFFFF" stroke-width="4" stroke-linecap="round" stroke-linejoin="round" stroke-miterlimit="10" x1="253" y1="257.2" x2="245" y2="249.2"/>
						
							<line fill="none" stroke="#FFFFFF" stroke-width="4" stroke-linecap="round" stroke-linejoin="round" stroke-miterlimit="10" x1="245" y1="209.2" x2="253" y2="201.2"/>
						
							<line fill="none" stroke="#FFFFFF" stroke-width="4" stroke-linecap="round" stroke-linejoin="round" stroke-miterlimit="10" x1="253" y1="201.2" x2="277" y2="201.2"/>
					</g>
					
						<line fill="none" stroke="#FFFFFF" stroke-width="4" stroke-linecap="round" stroke-linejoin="round" stroke-miterlimit="10" x1="269" y1="265.2" x2="277" y2="265.2"/>
					
						<line fill="none" stroke="#FFFFFF" stroke-width="4" stroke-linecap="round" stroke-linejoin="round" stroke-miterlimit="10" x1="261" y1="209.2" x2="277" y2="209.2"/>
					
						<line fill="none" stroke="#FFFFFF" stroke-width="4" stroke-linecap="round" stroke-linejoin="round" stroke-miterlimit="10" x1="117" y1="265.2" x2="125" y2="265.2"/>
				</g>
				<g>
					
						<path fill="none" stroke="#020210" stroke-width="4" stroke-linecap="round" stroke-linejoin="round" stroke-miterlimit="10" d="
						M293,289.2c0,4.4-3.6,8-8,8"/>
					
						<path fill="none" stroke="#020210" stroke-width="4" stroke-linecap="round" stroke-linejoin="round" stroke-miterlimit="10" d="
						M293,289.2c0-4.4-3.6-8-8-8"/>
					
						<line fill="none" stroke="#020210" stroke-width="4" stroke-linecap="round" stroke-linejoin="round" stroke-miterlimit="10" x1="293" y1="289.2" x2="293" y2="153.2"/>
					
						<path fill="none" stroke="#020210" stroke-width="4" stroke-linecap="round" stroke-linejoin="round" stroke-miterlimit="10" d="
						M293,153.2c0-4.4-3.6-8-8-8"/>
					
						<line fill="none" stroke="#020210" stroke-width="4" stroke-linecap="round" stroke-linejoin="round" stroke-miterlimit="10" x1="101" y1="297.2" x2="285" y2="297.2"/>
					
						<line fill="none" stroke="#020210" stroke-width="4" stroke-linecap="round" stroke-linejoin="round" stroke-miterlimit="10" x1="101" y1="161.2" x2="277" y2="161.2"/>
					
						<line fill="none" stroke="#020210" stroke-width="4" stroke-linecap="round" stroke-linejoin="round" stroke-miterlimit="10" x1="101" y1="161.2" x2="101" y2="297.2"/>
					
						<line fill="none" stroke="#020210" stroke-width="4" stroke-linecap="round" stroke-linejoin="round" stroke-miterlimit="10" x1="277" y1="281.2" x2="285" y2="281.2"/>
					
						<line fill="none" stroke="#020210" stroke-width="4" stroke-linecap="round" stroke-linejoin="round" stroke-miterlimit="10" x1="277" y1="145.2" x2="285" y2="145.2"/>
					
						<line fill="none" stroke="#020210" stroke-width="4" stroke-linecap="round" stroke-linejoin="round" stroke-miterlimit="10" x1="277" y1="145.2" x2="277" y2="281.2"/>
				</g>
			</g>
		</g>
	</g>
</g>
<g id="buttons">
</g>
<g id="text">
</g>
</svg>
